:FULLY-SPECIFIED
:FORCE-ALL-JOINTS-BE-3DOF
:DEGREES
2650
root -1.61181 15.2322 -28.6247 164.478 -73.3629 -169.247
lfemur -35.6793 27.4925 -3.15115
ltibia 56.7759 -0 0
lfoot 12.7438 12.5137 -0.189667
ltoes 0.90878 -0 0
rfemur -33.6811 -20.849 20.2671
rtibia 70.661 -0 0
rfoot -23.6878 -12.2061 -0.0610018
rtoes -6.34572 0 0
lowerback 16.2772 4.27896 1.08678
upperback -0.872057 5.99638 1.21538
thorax -9.8405 2.8274 -0.678784
lowerneck -2.89252 8.18225 1.07697
upperneck 6.82629 10.7241 1.63687
head 2.76771 5.41097 0.74113
lclavicle 0 0 0
lhumerus 15.7633 -22.5401 75.458
lradius 114.539 -0 0
lwrist -1.69212 0 0
lhand -36.9021 32.1174 0.509202
lfingers 0 0 0
lthumb -9.97643 61.7413 0.505314
rclavicle 0 0 0
rhumerus -28.0665 52.6774 -85.988
rradius 107.146 -0 0
rwrist -55.3793 0 0
rhand -7.79163 -23.9226 0.251613
rfingers 0 0 0
rthumb 18.0891 -52.7708 0.310359
2651
root -1.71226 15.2343 -28.5956 165.638 -71.8869 -170.577
lfemur -35.7992 27.8109 -2.97399
ltibia 55.2284 -0 0
lfoot 13.6728 12.409 -0.177119
ltoes 1.90296 -0 0
rfemur -33.2254 -20.5385 20.0596
rtibia 70.7418 -0 0
rfoot -24.0194 -12.1118 -0.0569824
rtoes -6.41333 0 0
lowerback 16.2422 4.45226 1.27734
upperback -0.877483 6.25491 1.13198
thorax -9.81094 2.93897 -0.939394
lowerneck -2.84631 8.42945 1.27156
upperneck 6.97602 11.0538 1.49277
head 2.82058 5.57373 0.675254
lclavicle 0 0 0
lhumerus 14.2449 -20.5553 75.9826
lradius 114.168 -0 0
lwrist -3.67543 0 0
lhand -37.3872 31.5789 0.475579
lfingers 0 0 0
lthumb -10.4447 61.1877 0.471947
rclavicle 0 0 0
rhumerus -29.5357 53.3776 -87.1603
rradius 108.141 -0 0
rwrist -58.5322 0 0
rhand -7.0448 -23.7497 0.234993
rfingers 0 0 0
rthumb 18.8086 -52.5495 0.289861
2652
root -1.80888 15.2362 -28.5675 166.581 -70.4533 -171.684
lfemur -35.9143 28.1189 -2.80296
ltibia 53.7326 -0 0
lfoot 14.5707 12.3079 -0.163379
ltoes 2.86394 -0 0
rfemur -32.7869 -20.2369 19.8619
rtibia 70.8199 -0 0
rfoot -24.3399 -12.0205 -0.0525781
rtoes -6.47869 0 0
lowerback 16.2088 4.61989 1.46147
upperback -0.88309 6.50479 1.05129
thorax -9.78284 3.04694 -1.19127
lowerneck -2.80081 8.66823 1.45996
upperneck 7.1201 11.3728 1.35417
head 2.87151 5.73112 0.611704
lclavicle 0 0 0
lhumerus 12.8131 -18.6254 76.4307
lradius 113.809 -0 0
lwrist -5.59251 0 0
lhand -37.8558 31.0587 0.438747
lfingers 0 0 0
lthumb -10.897 60.6528 0.435396
rclavicle 0 0 0
rhumerus -31.0017 54.0368 -88.3407
rradius 109.103 -0 0
rwrist -61.5798 0 0
rhand -6.32296 -23.5829 0.216788
rfingers 0 0 0
rthumb 19.504 -52.3358 0.267408
2653
root -1.90131 15.2379 -28.5405 167.355 -69.0707 -172.618
lfemur -36.0242 28.4152 -2.6388
ltibia 52.2951 -0 0
lfoot 15.4336 12.2111 -0.148684
ltoes 3.78745 -0 0
rfemur -32.3673 -19.9457 19.6746
rtibia 70.895 -0 0
rfoot -24.648 -11.9329 -0.0478649
rtoes -6.5415 0 0
lowerback 16.1773 4.78107 1.63838
upperback -0.888815 6.74491 0.973689
thorax -9.75629 3.15081 -1.4333
lowerneck -2.75631 8.89757 1.64131
upperneck 7.25798 11.6798 1.2216
head 2.92031 5.88242 0.550748
lclavicle 0 0 0
lhumerus 11.4666 -16.7614 76.8092
lradius 113.464 -0 0
lwrist -7.43483 0 0
lhand -38.3058 30.559 0.399345
lfingers 0 0 0
lthumb -11.3313 60.1391 0.396295
rclavicle 0 0 0
rhumerus -32.4544 54.653 -89.5198
rradius 110.028 -0 0
rwrist -64.5086 0 0
rhand -5.62932 -23.4228 0.197314
rfingers 0 0 0
rthumb 20.1722 -52.1308 0.243389
2654
root -1.98917 15.2395 -28.5146 167.996 -67.7468 -173.411
lfemur -36.1286 28.6984 -2.48224
ltibia 50.9226 -0 0
lfoot 16.2575 12.1188 -0.133293
ltoes 4.66922 -0 0
rfemur -31.9684 -19.6664 19.4982
rtibia 70.9666 -0 0
rfoot -24.9421 -11.8493 -0.0429252
rtoes -6.60147 0 0
lowerback 16.1477 4.93507 1.80724
upperback -0.89459 6.97418 0.899536
thorax -9.73134 3.25009 -1.66437
lowerneck -2.71311 9.11641 1.81474
upperneck 7.38909 11.9731 1.09558
head 2.96677 6.02693 0.492652
lclavicle 0 0 0
lhumerus 10.2044 -14.9742 77.125
lradius 113.135 -0 0
lwrist -9.19389 0 0
lhand -38.7351 30.0823 0.358065
lfingers 0 0 0
lthumb -11.7456 59.6488 0.35533
rclavicle 0 0 0
rhumerus -33.8826 55.2246 -90.6876
rradius 110.911 -0 0
rwrist -67.305 0 0
rhand -4.96709 -23.2701 0.176913
rfingers 0 0 0
rthumb 20.8101 -51.9353 0.218226
2655
root -2.07211 15.2408 -28.49 168.53 -66.4893 -174.09
lfemur -36.2269 28.9671 -2.33399
ltibia 49.6217 -0 0
lfoot 17.0383 12.0315 -0.117482
ltoes 5.50498 -0 0
rfemur -31.5918 -19.4007 19.3332
rtibia 71.0346 -0 0
rfoot -25.2208 -11.77 -0.0378469
rtoes -6.65831 0 0
lowerback 16.12 5.0811 1.96726
upperback -0.900343 7.19148 0.829197
thorax -9.70807 3.34429 -1.88336
lowerneck -2.67152 9.32371 1.97938
upperneck 7.51288 12.2514 0.976647
head 3.01067 6.16395 0.437682
lclavicle 0 0 0
lhumerus 9.02661 -13.2746 77.3846
lradius 112.823 -0 0
lwrist -10.8612 0 0
lhand -39.1417 29.6307 0.315644
lfingers 0 0 0
lthumb -12.138 59.1845 0.313233
rclavicle 0 0 0
rhumerus -35.2741 55.7506 -91.8331
rradius 111.748 -0 0
rwrist -69.9555 0 0
rhand -4.33946 -23.1257 0.155949
rfingers 0 0 0
rthumb 21.4146 -51.7503 0.192368
2656
root -2.14975 15.242 -28.4669 168.975 -65.3054 -174.672
lfemur -36.3189 29.2197 -2.19479
ltibia 48.399 -0 0
lfoot 17.7721 11.9497 -0.101539
ltoes 6.29046 -0 0
rfemur -31.2391 -19.1501 19.1801
rtibia 71.0984 -0 0
rfoot -25.4828 -11.6956 -0.0327228
rtoes -6.71173 0 0
lowerback 16.0944 5.21842 2.11761
upperback -0.905997 7.3957 0.763038
thorax -9.68652 3.4329 -2.08917
lowerneck -2.63185 9.51843 2.13434
upperneck 7.62881 12.5132 0.865314
head 3.05183 6.29276 0.386102
lclavicle 0 0 0
lhumerus 7.93388 -11.6729 77.5944
lradius 112.53 -0 0
lwrist -12.4281 0 0
lhand -39.5235 29.2066 0.272856
lfingers 0 0 0
lthumb -12.5064 58.7484 0.270771
rclavicle 0 0 0
rhumerus -36.6159 56.2302 -92.9443
rradius 112.534 -0 0
rwrist -72.4466 0 0
rhand -3.74965 -22.9901 0.134804
rfingers 0 0 0
rthumb 21.9827 -51.5766 0.166287
2657
root -2.22174 15.243 -28.4454 169.348 -64.2021 -175.173
lfemur -36.404 29.455 -2.06536
ltibia 47.2613 -0 0
lfoot 18.455 11.8738 -0.0857635
ltoes 7.0214 -0 0
rfemur -30.912 -18.916 19.0392
rtibia 71.1578 -0 0
rfoot -25.7266 -11.6263 -0.0276487
rtoes -6.76144 0 0
lowerback 16.0708 5.34627 2.25751
upperback -0.911474 7.58573 0.701428
thorax -9.66675 3.51542 -2.28066
lowerneck -2.59445 9.69954 2.27874
upperneck 7.73633 12.757 0.762098
head 3.09003 6.41265 0.338175
lclavicle 0 0 0
lhumerus 6.92769 -10.1791 77.7608
lradius 112.257 -0 0
lwrist -13.8863 0 0
lhand -39.8785 28.8122 0.230502
lfingers 0 0 0
lthumb -12.849 58.3428 0.228741
rclavicle 0 0 0
rhumerus -37.8946 56.6632 -94.009
rradius 113.266 -0 0
rwrist -74.7646 0 0
rhand -3.20083 -22.8642 0.113876
rfingers 0 0 0
rthumb 22.5113 -51.4153 0.140473
